<?xml version="1.0" encoding="UTF-8" standalone="no"?>
<!-- Generated by IcoMoon.io -->

<svg
   xmlns:dc="http://purl.org/dc/elements/1.1/"
   xmlns:cc="http://creativecommons.org/ns#"
   xmlns:rdf="http://www.w3.org/1999/02/22-rdf-syntax-ns#"
   xmlns:svg="http://www.w3.org/2000/svg"
   xmlns="http://www.w3.org/2000/svg"
   xmlns:sodipodi="http://sodipodi.sourceforge.net/DTD/sodipodi-0.dtd"
   xmlns:inkscape="http://www.inkscape.org/namespaces/inkscape"
   version="1.1"
   width="768"
   height="768"
   viewBox="0 0 768 768"
   id="svg2"
   inkscape:version="0.92.3 (2405546, 2018-03-11)"
   sodipodi:docname="bus_white.svg">
  <metadata
     id="metadata11">
    <rdf:RDF>
      <cc:Work
         rdf:about="">
        <dc:format>image/svg+xml</dc:format>
        <dc:type
           rdf:resource="http://purl.org/dc/dcmitype/StillImage" />
      </cc:Work>
    </rdf:RDF>
  </metadata>
  <defs
     id="defs9" />
  <sodipodi:namedview
     pagecolor="#ffffff"
     bordercolor="#666666"
     borderopacity="1"
     objecttolerance="10"
     gridtolerance="10"
     guidetolerance="10"
     inkscape:pageopacity="0"
     inkscape:pageshadow="2"
     inkscape:window-width="1853"
     inkscape:window-height="1025"
     id="namedview7"
     showgrid="false"
     inkscape:zoom="0.30729167"
     inkscape:cx="-143.18644"
     inkscape:cy="384"
     inkscape:window-x="67"
     inkscape:window-y="27"
     inkscape:window-maximized="1"
     inkscape:current-layer="svg2" />
  <g
     id="icomoon-ignore" />
  <path
     d="M576 352.5v-160.5h-384v160.5h384zM528 544.5c27 0 48-21 48-48s-21-48-48-48-48 21-48 48 21 48 48 48zM240 544.5c27 0 48-21 48-48s-21-48-48-48-48 21-48 48 21 48 48 48zM127.5 511.5v-319.5c0-112.5 115.5-127.5 256.5-127.5s256.5 15 256.5 127.5v319.5c0 28.5-13.5 54-33 72v57c0 18-13.5 31.5-31.5 31.5h-31.5c-18 0-33-13.5-33-31.5v-33h-255v33c0 18-15 31.5-33 31.5h-31.5c-18 0-31.5-13.5-31.5-31.5v-57c-19.5-18-33-43.5-33-72z"
     id="path5"
     style="fill:#ffffff;fill-opacity:1" />
</svg>
