<?xml version="1.0" encoding="UTF-8" standalone="no"?>
<svg
   xmlns:dc="http://purl.org/dc/elements/1.1/"
   xmlns:cc="http://creativecommons.org/ns#"
   xmlns:rdf="http://www.w3.org/1999/02/22-rdf-syntax-ns#"
   xmlns:svg="http://www.w3.org/2000/svg"
   xmlns="http://www.w3.org/2000/svg"
   xmlns:sodipodi="http://sodipodi.sourceforge.net/DTD/sodipodi-0.dtd"
   xmlns:inkscape="http://www.inkscape.org/namespaces/inkscape"
   viewBox="0 0 768 768"
   version="1.1"
   id="svg14"
   sodipodi:docname="caravan_logo.svg"
   inkscape:version="0.92.3 (2405546, 2018-03-11)">
  <metadata
     id="metadata18">
    <rdf:RDF>
      <cc:Work
         rdf:about="">
        <dc:format>image/svg+xml</dc:format>
        <dc:type
           rdf:resource="http://purl.org/dc/dcmitype/StillImage" />
      </cc:Work>
    </rdf:RDF>
  </metadata>
  <sodipodi:namedview
     pagecolor="#ffffff"
     bordercolor="#666666"
     borderopacity="1"
     objecttolerance="10"
     gridtolerance="10"
     guidetolerance="10"
     inkscape:pageopacity="0"
     inkscape:pageshadow="2"
     inkscape:window-width="1853"
     inkscape:window-height="1025"
     id="namedview16"
     showgrid="false"
     inkscape:zoom="0.43457604"
     inkscape:cx="358.91433"
     inkscape:cy="152.37311"
     inkscape:window-x="67"
     inkscape:window-y="27"
     inkscape:window-maximized="1"
     inkscape:current-layer="svg14" />
  <defs
     id="defs4">
    <style
       id="style2">.cls-1{fill:#f7931e;}.cls-2{fill:#fff;stroke:#000;stroke-miterlimit:10;stroke-width:8px;}</style>
  </defs>
  <title
     id="title6">Camel-Mar11</title>
  <g
     id="Layer_5"
     data-name="Layer 5"
     transform="matrix(1.2879848,0,0,1.2879848,-109.27855,-112.12221)"
     style="stroke:none">
    <path
       class="cls-2"
       d="m 106.19,267 c 4.91,0.35 6.22,-8.56 13.91,-12.79 9.84,-5.41 19.13,-5 23.6,-4.72 6.39,0.37 16.36,0.94 23.61,7.87 6.36,6.07 7.39,14.54 9.44,31.47 0.28,2.32 0.46,4.12 1.58,28.33 0.88,19.06 0.94,21.41 1.57,26.76 a 170.26,170.26 0 0 0 4.72,25.18 c 2.73,10.12 5.45,20.22 12.59,31.47 a 105,105 0 0 0 12.59,15.74 116.26,116.26 0 0 0 18.89,17.31 c 7.6,5.36 18.26,12.89 33.05,14.16 18.28,1.58 32.76,-7.28 39.78,-11.57 5.55,-3.4 6.13,-4.7 23.17,-18.33 8.58,-6.88 15.69,-12.36 20.31,-15.88 0.29,1 6.94,23.91 8,34.74 0.18,1.86 0.33,3.77 0.33,3.77 0.38,5.75 0.09,10.58 1.24,37.15 0.36,8.33 0.66,14.2 1.57,22 1.39,12 2.34,12.49 3.15,20.46 1.12,11 0.21,18.94 -1.57,34.62 -1.6,14.19 -2.4,21.26 -4.72,25.26 -5.28,9 -12.49,11.43 -14.17,20.46 a 22.6,22.6 0 0 0 1.6,12.54 h 41.4 c 5.76,-6.25 7.3,-11.61 7.38,-15.74 0.11,-5.31 -2.24,-7 -3.14,-14.16 -0.37,-2.87 -0.21,-4.37 1.57,-17.31 1.54,-11.19 2.33,-16.88 3.15,-22 1.45,-9.1 2.19,-13.73 3.14,-17.31 2.63,-9.85 4.47,-10.52 6.3,-17.31 2.92,-10.83 -0.81,-12.56 0,-29.9 0.52,-11 2,-9.38 3.15,-25.18 0.58,-8 1.11,-13.9 1.57,-22 0.4,-7.09 0.8,-15.88 1.05,-26 4.15,1.18 10.38,2.93 18,5 4.5,1.22 7,1.89 15,4 21.88,5.8 20.83,5.58 22.61,6 a 207.9,207.9 0 0 0 26.75,4.72 c 7.79,0.84 17.55,1.82 29.9,0 A 98.21,98.21 0 0 0 537.15,421 95.5,95.5 0 0 0 545,436.74 c 5.68,9.14 10.43,13.33 18.88,23.6 3.54,4.3 8.55,10.68 14.17,18.89 a 193.47,193.47 0 0 1 -1.58,23.61 c -0.74,5.71 -1.16,6.87 -4.72,26.75 -2.26,12.58 -2.24,13 -3.15,17.31 -2.5,12 -3.76,18 -6.29,23.61 -2.73,6 -5.81,12.79 -12.59,18.88 -4.54,4.08 -7.78,5.2 -9.44,9.45 -1.94,4.92 -0.28,10.25 1.57,14.16 h 56.68 c 7.65,-9.22 8.52,-16 7.84,-20.46 -1,-6.83 -5.53,-8 -7.87,-17.31 -1.79,-7.14 -0.85,-13.29 0,-18.89 0.44,-2.85 1.88,-7.71 4.73,-17.31 3,-10 3.28,-10.64 4.72,-15.73 2.34,-8.33 2.12,-8.87 4.72,-18.89 4,-15.35 4.93,-15.8 6.29,-23.61 1.19,-6.77 2.12,-12.08 1.58,-18.88 -1,-12.5 -5.74,-14.79 -7.87,-26.76 -1,-5.31 -0.11,-12.45 1.57,-26.75 1.82,-15.47 2.93,-17.06 4.72,-33.05 1.32,-11.71 2,-17.56 1.58,-23.61 -0.81,-12.44 -3.95,-19.08 -1.58,-20.45 2.77,-1.6 10.13,5.61 14.17,11 a 45.54,45.54 0 0 1 7.87,17.32 c -4.55,3.39 -9.81,8.43 -9.45,14.17 0.29,4.64 4.09,7 9.45,12.59 13,13.62 13.82,24.26 17.33,23.62 4.33,-0.8 6.48,-17.72 3.15,-33.05 -1.8,-8.24 -4.87,-13.88 -11,-25.18 a 210.71,210.71 0 0 0 -23.61,-34.62 c -6.68,-7.94 -7,-7.11 -12.59,-14.16 -6.73,-8.5 -10.25,-14.74 -17.31,-26.76 -15.75,-26.82 -15.77,-27 -18.88,-31.47 -3.49,-5 -8.68,-11.24 -19.07,-23.74 -13.69,-16.47 -20.64,-24.8 -26.3,-29.77 a 129.74,129.74 0 0 0 -28.6,-18.89 65.87,65.87 0 0 0 -36.2,-6.29 c -14.35,1.68 -24.33,8 -31.47,12.59 -9.65,6.22 -13.69,11.27 -28.45,27.34 -11.48,12.5 -23.37,24.64 -35,37 -12.12,12.88 -20.17,21.34 -34.15,36.36 -10.64,11.44 -19.42,21 -26.28,29.84 -0.66,0.85 -2.49,3.27 -5.19,6.36 a 129.85,129.85 0 0 1 -14.17,14.16 c -7.74,6.51 -11.61,9.77 -17.31,11 -0.79,0.17 -12.36,2.52 -22,-4.72 -6.13,-4.59 -8.16,-10.55 -11,-18.89 -2.7,-7.89 -3.41,-15.33 -4.72,-29.9 -0.53,-5.88 -1.32,-14.83 -1.57,-26.75 0,-0.65 0,-0.11 0,-25.18 v -25.17 a 37.8,37.8 0 0 0 14.16,4.73 c 4.71,0.57 10.67,1.29 12.59,-1.58 3.4,-5.06 -8.32,-17.67 -9.44,-18.88 -3.32,-3.58 -9.52,-10.06 -18.89,-11 a 23.56,23.56 0 0 0 -4.72,0 34.68,34.68 0 0 0 -11,-9.44 c -4.53,-2.43 -8.79,-3.19 -17.32,-4.72 -6.37,-1.15 -9.55,-1.72 -12.59,-1.58 -8.5,0.4 -14.75,3.95 -18.88,6.3 -3.17,1.8 -9.56,5.43 -14.16,11 a 42.1,42.1 0 0 1 -6.3,6.3 21.12,21.12 0 0 1 -4.72,3.15 c -3.38,1.52 -5.06,0.82 -9.44,1.57 -2.58,0.44 -4.87,1.34 -9.45,3.15 -5.36,2.11 -8,3.17 -9.44,4.72 -2.82,3.12 -1.64,5.34 -4.72,7.87 -2.35,1.93 -3.5,1 -6.3,3.15 a 16.15,16.15 0 0 0 -4.72,6.29 c -1.64,3.5 -1,4.13 -3.14,9.44 0,0 -0.75,2.09 -1.58,4.73 -2.31,7.3 1.81,20.79 3.15,25.18 a 10.08,10.08 0 0 0 1.57,3.14 c 0.92,1.3 2.63,3.17 4.92,3.37 z"
       id="path11"
       inkscape:connector-curvature="0"
       style="fill:#ffffff;stroke:none;stroke-width:8px;stroke-miterlimit:10" />
  </g>
</svg>
