<svg width="111" height="120" viewBox="0 0 111 120" fill="none" xmlns="http://www.w3.org/2000/svg">
<g filter="url(#filter0_d)">
<line x1="50" y1="10.8948" x2="50" y2="106.895" stroke="#DE1D41" stroke-width="8"/>
<line x1="63" y1="10.8948" x2="63" y2="58.8948" stroke="#F59331" stroke-width="8"/>
<line x1="63" y1="54" x2="63" y2="102" stroke="#16A050" stroke-width="8"/>
<line x1="10" y1="7" x2="47" y2="7" stroke="#1BA4E3" stroke-width="8"/>
<line x1="12" y1="20" x2="47" y2="20" stroke="#FEF035" stroke-width="8"/>
<line x1="66" y1="20" x2="99" y2="20" stroke="#493390" stroke-width="8"/>
<line x1="64" y1="8" x2="99" y2="8" stroke="#F18DB9" stroke-width="8"/>
<circle cx="50" cy="60.8948" r="6" fill="white" stroke="black" stroke-width="4"/>
<circle cx="61.7895" cy="60.8948" r="6" fill="white" stroke="black" stroke-width="4"/>
<rect x="52.1053" y="58.7896" width="9.26316" height="4.21053" fill="white"/>
<circle cx="50" cy="103.895" r="6" fill="white" stroke="black" stroke-width="4"/>
<circle cx="61.7895" cy="103.895" r="6" fill="white" stroke="black" stroke-width="4"/>
<rect x="52.1053" y="101.79" width="9.26316" height="4.21053" fill="white"/>
<circle cx="62.8947" cy="19.7894" r="6" transform="rotate(-90 62.8947 19.7894)" fill="white" stroke="black" stroke-width="4"/>
<circle cx="62.8947" cy="8" r="6" transform="rotate(-90 62.8947 8)" fill="white" stroke="black" stroke-width="4"/>
<rect x="60.7895" y="17.6842" width="9.26316" height="4.21053" transform="rotate(-90 60.7895 17.6842)" fill="white"/>
<circle cx="99" cy="19.7896" r="6" transform="rotate(-90 99 19.7896)" fill="white" stroke="black" stroke-width="4"/>
<circle cx="99" cy="8.00012" r="6" transform="rotate(-90 99 8.00012)" fill="white" stroke="black" stroke-width="4"/>
<rect x="96.8947" y="17.6843" width="9.26316" height="4.21053" transform="rotate(-90 96.8947 17.6843)" fill="white"/>
<circle cx="12" cy="19.7894" r="6" transform="rotate(-90 12 19.7894)" fill="white" stroke="black" stroke-width="4"/>
<circle cx="12" cy="8" r="6" transform="rotate(-90 12 8)" fill="white" stroke="black" stroke-width="4"/>
<rect x="9.89474" y="17.6842" width="9.26316" height="4.21053" transform="rotate(-90 9.89474 17.6842)" fill="white"/>
<circle cx="50" cy="19.7896" r="6" transform="rotate(-90 50 19.7896)" fill="white" stroke="black" stroke-width="4"/>
<circle cx="50" cy="8.00012" r="6" transform="rotate(-90 50 8.00012)" fill="white" stroke="black" stroke-width="4"/>
<rect x="47.8947" y="17.6843" width="9.26316" height="4.21053" transform="rotate(-90 47.8947 17.6843)" fill="white"/>
</g>
<defs>
<filter id="filter0_d" x="0" y="0" width="111" height="119.895" filterUnits="userSpaceOnUse" color-interpolation-filters="sRGB">
<feFlood flood-opacity="0" result="BackgroundImageFix"/>
<feColorMatrix in="SourceAlpha" type="matrix" values="0 0 0 0 0 0 0 0 0 0 0 0 0 0 0 0 0 0 127 0"/>
<feOffset dy="4"/>
<feGaussianBlur stdDeviation="2"/>
<feColorMatrix type="matrix" values="0 0 0 0 0 0 0 0 0 0 0 0 0 0 0 0 0 0 0.25 0"/>
<feBlend mode="normal" in2="BackgroundImageFix" result="effect1_dropShadow"/>
<feBlend mode="normal" in="SourceGraphic" in2="effect1_dropShadow" result="shape"/>
</filter>
</defs>
</svg>
