<?xml version="1.0" encoding="UTF-8" standalone="no"?>
<!-- Generated by IcoMoon.io -->

<svg
   xmlns:dc="http://purl.org/dc/elements/1.1/"
   xmlns:cc="http://creativecommons.org/ns#"
   xmlns:rdf="http://www.w3.org/1999/02/22-rdf-syntax-ns#"
   xmlns:svg="http://www.w3.org/2000/svg"
   xmlns="http://www.w3.org/2000/svg"
   xmlns:sodipodi="http://sodipodi.sourceforge.net/DTD/sodipodi-0.dtd"
   xmlns:inkscape="http://www.inkscape.org/namespaces/inkscape"
   version="1.1"
   width="768"
   height="768"
   viewBox="0 0 768 768"
   id="svg74"
   inkscape:version="0.91 r13725"
   sodipodi:docname="train.svg">
  <metadata
     id="metadata83">
    <rdf:RDF>
      <cc:Work
         rdf:about="">
        <dc:format>image/svg+xml</dc:format>
        <dc:type
           rdf:resource="http://purl.org/dc/dcmitype/StillImage" />
        <dc:title></dc:title>
      </cc:Work>
    </rdf:RDF>
  </metadata>
  <defs
     id="defs81" />
  <sodipodi:namedview
     pagecolor="#ffffff"
     bordercolor="#666666"
     borderopacity="1"
     objecttolerance="10"
     gridtolerance="10"
     guidetolerance="10"
     inkscape:pageopacity="0"
     inkscape:pageshadow="2"
     inkscape:window-width="698"
     inkscape:window-height="480"
     id="namedview79"
     showgrid="false"
     inkscape:zoom="0.30729167"
     inkscape:cx="384"
     inkscape:cy="384"
     inkscape:window-x="65"
     inkscape:window-y="24"
     inkscape:window-maximized="0"
     inkscape:current-layer="svg74" />
  <g
     id="icomoon-ignore" />
  <path
     d="m 528,542.5 c 27,0 48,-21 48,-48 0,-27 -21,-48 -48,-48 -27,0 -48,21 -48,48 0,27 21,48 48,48 z m -112.5,-225 160.5,0 0,-127.5 -160.5,0 0,127.5 z m -63,0 0,-127.5 -160.5,0 0,127.5 160.5,0 z M 240,542.5 c 27,0 48,-21 48,-48 0,-27 -21,-48 -48,-48 -27,0 -48,21 -48,48 0,27 21,48 48,48 z m 144,-480 c 141,0 256.5,15 256.5,127.5 l 0,304.5 c 0,61.5 -51,111 -112.5,111 l 48,48 0,16.5 -64.5,0 -63,-64.5 -121.5,0 -63,64.5 -72,0 0,-16.5 48,-48 c -61.5,0 -112.5,-49.5 -112.5,-111 l 0,-304.5 C 127.5,77.5 256.5,62.5 384,62.5 Z"
     id="path77"
     inkscape:connector-curvature="0"
     style="fill:#535353;fill-opacity:1" />
</svg>
